<svg xmlns="http://www.w3.org/2000/svg" viewBox="0 0 1408 768" width="1408" height="768" role="img">
  <title>Wandering Relic Merchant</title>
  <desc>Chibi hooded merchant holding a glowing cyan relic gem, with a coin pouch and market pack. Placeholder art in the Dungeon of Recall style pending a real art pass.</desc>
  <defs>
    <radialGradient id="gemGlow" cx="50%" cy="50%" r="50%">
      <stop offset="0%" stop-color="#00E5FF" stop-opacity="0.85"/>
      <stop offset="45%" stop-color="#0891A0" stop-opacity="0.45"/>
      <stop offset="100%" stop-color="#0891A0" stop-opacity="0"/>
    </radialGradient>
    <radialGradient id="packGlow" cx="50%" cy="45%" r="55%">
      <stop offset="0%" stop-color="#F5B942" stop-opacity="0.55"/>
      <stop offset="100%" stop-color="#F5B942" stop-opacity="0"/>
    </radialGradient>
  </defs>

  <ellipse cx="700" cy="690" rx="205" ry="34" fill="#0B120C" opacity="0.55"/>

  <g stroke="#0B120C" stroke-width="9" stroke-linejoin="round" stroke-linecap="round">
    <circle cx="915" cy="360" r="150" fill="url(#packGlow)" stroke="none"/>
    <g>
      <path d="M812 300 q118 -26 150 34 q30 66 8 210 q-96 30 -176 6 q-24 -150 18 -250 z" fill="#382918"/>
      <path d="M842 322 q78 -14 100 26 q20 52 4 168 q-58 18 -110 6 q-14 -110 6 -200 z" fill="#6B5138"/>
      <rect x="864" y="300" width="16" height="230" rx="6" fill="#382918"/>
      <path d="M900 330 l40 -10 l6 40 l-40 8 z" fill="#0891A0"/>
      <path d="M906 336 l26 -6 l4 26 l-26 6 z" fill="#00E5FF"/>
      <circle cx="944" cy="452" r="26" fill="#1C2A1E"/>
      <circle cx="944" cy="452" r="14" fill="#3F5A42"/>
      <path d="M812 484 q60 20 132 6" fill="none"/>
    </g>

    <path d="M566 470 q-6 -150 40 -206 q64 -70 190 -8 q52 78 44 214 q6 120 -14 196 q-150 40 -280 6 q-14 -118 20 -202 z" fill="#1C2A1E"/>
    <path d="M598 476 q-6 -128 34 -178 q54 -58 158 -12 q-58 -6 -110 40 q-40 58 -34 156 q-4 108 8 178 q-58 6 -78 -2 q-8 -96 24 -182 z" fill="#131A14" stroke="none"/>
    <path d="M700 292 q88 -12 108 44 l-20 24 q-72 -46 -160 -2 l-18 -26 q34 -34 90 -40 z" fill="#2A3F2D"/>
    <path d="M700 300 q-70 4 -96 74 q54 -40 96 -40 q46 0 96 38 q-24 -68 -96 -72 z" fill="#B44420" stroke-width="7"/>
    <path d="M700 316 q-30 2 -44 34 l44 10 l44 -10 q-16 -34 -44 -34 z" fill="#FF6B35" stroke-width="6"/>

    <path d="M700 214 q-96 0 -110 96 q-6 74 40 112 q30 24 70 24 q40 0 70 -24 q46 -38 40 -112 q-14 -96 -110 -96 z" fill="#E8B48C"/>
    <path d="M700 214 q-96 0 -110 96 q-4 40 12 70 q-2 -108 98 -120 q100 12 98 120 q16 -30 12 -70 q-14 -96 -110 -96 z" fill="#C98A63" stroke="none"/>
    <path d="M604 300 q-8 -120 96 -132 q104 12 96 132 q28 -18 20 -80 q-18 -104 -116 -104 q-98 0 -116 104 q-8 62 20 80 z" fill="#4F554F"/>
    <path d="M604 300 q-8 -120 96 -132 q104 12 96 132 q10 -70 -30 -104 q-66 -30 -132 0 q-40 34 -30 104 z" fill="#363A36" stroke="none"/>

    <circle cx="656" cy="326" r="13" fill="#141614" stroke-width="5"/>
    <circle cx="744" cy="326" r="13" fill="#141614" stroke-width="5"/>
    <circle cx="660" cy="322" r="4" fill="#E8EDE6" stroke="none"/>
    <circle cx="748" cy="322" r="4" fill="#E8EDE6" stroke="none"/>
    <path d="M672 372 q28 20 56 0" fill="none" stroke-width="6"/>
    <path d="M636 300 q-70 24 -84 92 q-8 40 6 104 q-38 -22 -44 -104 q-2 -86 66 -116 q34 -12 60 -8 z" fill="#4F554F"/>
    <path d="M636 300 q-70 24 -84 92 q-6 30 0 72 q-14 -66 20 -120 q28 -34 64 -44 z" fill="#363A36" stroke="none"/>
    <ellipse cx="628" cy="356" rx="16" ry="10" fill="#FF6B35" opacity="0.5" stroke="none"/>
    <ellipse cx="772" cy="356" rx="16" ry="10" fill="#FF6B35" opacity="0.5" stroke="none"/>

    <path d="M566 470 q-58 30 -66 120 q40 20 78 -6 q10 -68 -12 -114 z" fill="#1C2A1E"/>
    <path d="M540 566 q-16 34 4 60 q26 14 44 -6 l-8 -60 z" fill="#E8B48C"/>

    <path d="M792 470 q78 -40 120 -150 q34 -6 44 22 q-30 130 -132 190 q-40 -22 -32 -62 z" fill="#1C2A1E"/>
    <path d="M918 320 q34 -8 46 20 q6 24 -8 44 q-40 8 -54 -20 q-2 -34 16 -44 z" fill="#E8B48C"/>
    <circle cx="946" cy="300" r="70" fill="url(#gemGlow)" stroke="none"/>
    <path d="M946 250 l40 44 l-40 60 l-40 -60 z" fill="#0891A0" stroke-width="7"/>
    <path d="M946 262 l26 30 l-26 42 l-26 -42 z" fill="#00E5FF" stroke="none"/>
    <path d="M946 262 l26 30 l-26 10 z" fill="#E8EDE6" opacity="0.8" stroke="none"/>

    <rect x="560" y="470" width="280" height="40" rx="14" fill="#382918"/>
    <rect x="672" y="466" width="56" height="48" rx="10" fill="#6B5138"/>
    <rect x="686" y="480" width="28" height="20" rx="5" fill="#F5B942" stroke-width="5"/>

    <path d="M600 508 q-16 74 6 150 q40 14 74 2 q10 -80 -4 -150 z" fill="#2A3F2D"/>
    <path d="M796 508 q16 74 -6 150 q-40 14 -74 2 q-10 -80 4 -150 z" fill="#2A3F2D"/>
    <path d="M600 508 q-10 60 2 130 q-22 -66 -2 -130 z" fill="#131A14" stroke="none"/>
    <rect x="596" y="648" width="86" height="42" rx="12" fill="#382918"/>
    <rect x="716" y="648" width="86" height="42" rx="12" fill="#382918"/>

    <g>
      <path d="M582 512 q-42 10 -54 58 q-14 52 20 84 q40 24 82 4 q28 -60 8 -118 q-18 -34 -56 -28 z" fill="#6B5138"/>
      <path d="M582 512 q-42 10 -54 58 q-6 22 2 44 q4 -50 40 -82 q26 -18 56 -12 q-18 -14 -44 -8 z" fill="#382918" stroke="none"/>
      <ellipse cx="574" cy="596" rx="30" ry="26" fill="#382918" stroke-width="6"/>
      <circle cx="560" cy="588" r="14" fill="#F5B942" stroke-width="5"/>
      <circle cx="586" cy="600" r="14" fill="#F5B942" stroke-width="5"/>
      <circle cx="574" cy="576" r="13" fill="#FF6B35" stroke-width="5"/>
    </g>
  </g>
</svg>
